<svg width="40" height="40" viewBox="0 0 40 40" fill="none" xmlns="http://www.w3.org/2000/svg">
<path d="M36.6666 20C36.6666 29.2047 29.2046 36.6667 19.9999 36.6667C10.7952 36.6667 3.33325 29.2047 3.33325 20C3.33325 10.7953 10.7952 3.33337 19.9999 3.33337C29.2046 3.33337 36.6666 10.7953 36.6666 20Z" fill="#1C274C"/>
<path fill-rule="evenodd" clip-rule="evenodd" d="M20 12.0834C20.6903 12.0834 21.25 12.643 21.25 13.3334V19.4822L25.0505 23.2829C25.5387 23.771 25.5387 24.5624 25.0505 25.0505C24.5623 25.5387 23.771 25.5387 23.2828 25.0505L19.1162 20.8839C18.8817 20.6495 18.75 20.3315 18.75 20V13.3334C18.75 12.643 19.3097 12.0834 20 12.0834Z" fill="white"/>
</svg>
