<svg width="40" height="40" viewBox="0 0 40 40" fill="none" xmlns="http://www.w3.org/2000/svg">
<path d="M9.59183 33.805L6.66683 13.3334H33.3335L30.4085 33.805C30.295 34.5993 29.8987 35.326 29.2925 35.8517C28.6863 36.3774 27.9109 36.6668 27.1085 36.6667H12.8918C12.0895 36.6668 11.314 36.3774 10.7078 35.8517C10.1016 35.326 9.70537 34.5993 9.59183 33.805ZM35.0002 6.66671H26.6668V5.00004C26.6668 4.55801 26.4912 4.13409 26.1787 3.82153C25.8661 3.50897 25.4422 3.33337 25.0002 3.33337H15.0002C14.5581 3.33337 14.1342 3.50897 13.8217 3.82153C13.5091 4.13409 13.3335 4.55801 13.3335 5.00004V6.66671H5.00016C4.55814 6.66671 4.13421 6.8423 3.82165 7.15486C3.50909 7.46742 3.3335 7.89135 3.3335 8.33337C3.3335 8.7754 3.50909 9.19932 3.82165 9.51188C4.13421 9.82445 4.55814 10 5.00016 10H35.0002C35.4422 10 35.8661 9.82445 36.1787 9.51188C36.4912 9.19932 36.6668 8.7754 36.6668 8.33337C36.6668 7.89135 36.4912 7.46742 36.1787 7.15486C35.8661 6.8423 35.4422 6.66671 35.0002 6.66671Z" fill="black"/>
</svg>
